<?xml version="1.0" standalone="no"?>
<!DOCTYPE svg PUBLIC "-//W3C//DTD SVG 1.1//EN" "http://www.w3.org/Graphics/SVG/1.1/DTD/svg11.dtd">
<svg width="1920px" height="227px" version="1.1" xmlns="http://www.w3.org/2000/svg" xmlns:xlink="http://www.w3.org/1999/xlink" xml:space="preserve" style="fill-rule:evenodd;clip-rule:evenodd;stroke-linejoin:round;stroke-miterlimit:1.41421;">
    <g>
        <g>
            <g>
                <path d="M1920.46,205.676L1923.46,205.676L1907.89,194.372L1892.32,205.676L1896.57,205.676L1896.57,216.249L1888.32,216.249L1888.32,194.2L1894.21,194.2L1868.89,175.819L1860.22,182.115L1860.22,178.301L1854.44,178.301L1854.44,186.312L1843.57,194.2L1849.47,194.2L1849.47,211.254L1834.55,211.254L1834.55,190.371L1837.53,190.807L1832.46,185.373L1832.46,179.436L1829.91,179.436L1829.91,182.644L1826.45,178.934L1817.31,186.901L1807.56,178.764L1798.42,186.732L1788.67,178.595L1779.54,186.562L1769.79,178.425L1765.99,182.233L1765.99,179.436L1763.44,179.436L1763.44,184.786L1760.01,188.226L1762.5,188.226L1762.5,193.759L1747.16,193.759L1747.16,187.632L1735.35,187.632L1735.35,197.698L1731.41,197.698L1731.41,205.27L1726.21,205.27L1726.21,185.117L1706.62,177.58L1706.62,170.268L1704.92,170.268C1704.39,168.315 1702.78,166.821 1700.76,166.486L1700.76,158.755L1699.05,158.755L1699.05,166.486C1697.03,166.821 1695.41,168.315 1694.89,170.268L1693.19,170.268L1693.19,177.865L1680.69,182.673L1657.9,166.128L1645.16,175.371L1645.16,169.345L1637.67,169.345L1637.67,180.811L1633.52,183.823L1621.52,183.823L1621.52,178.175L1628.17,178.175L1615.91,169.267L1615.91,160.225L1609.38,160.225L1609.38,164.53L1599.59,157.422L1571.01,178.175L1577.67,178.175L1577.67,191.713L1565.52,196.574L1565.52,203.407L1551.06,203.407L1551.06,196.574L1543.48,193.542L1543.48,174.837L1550.23,174.837L1508.1,153.777L1485.03,165.304L1485.03,156.621L1478.41,156.621L1478.41,168.613L1465.96,174.837L1472.71,174.837L1472.71,206.028L1462.85,206.028L1462.85,185.02L1454.46,185.02L1454.46,164.046L1459.61,164.046L1456.21,158.595L1451.11,158.595L1451.11,155.446L1441.66,155.446C1441.16,152.511 1438.62,150.274 1435.54,150.274C1432.46,150.274 1429.92,152.511 1429.41,155.446L1419.96,155.446L1419.96,158.595L1414.86,158.595L1411.46,164.046L1416.61,164.046L1416.61,185.02L1394.2,185.02L1394.2,163.687L1401.84,163.687L1369.03,139.867L1356.3,149.111L1356.3,143.084L1348.8,143.084L1348.8,154.549L1336.22,163.687L1343.86,163.687L1343.86,207.847L1330.67,207.847L1330.67,186.93L1336.61,186.93L1330.13,176.546L1310.71,176.546L1310.71,159.421L1319.88,159.421L1280.51,130.835L1267.03,140.625L1267.03,134.696L1258.04,134.696L1258.04,147.153L1241.14,159.421L1250.31,159.421L1250.31,168.998L1224.03,162.404L1224.03,147.683L1230.72,147.683L1202.95,100.884L1200.96,100.879L1173.18,147.683L1179.88,147.683L1179.88,182.278L1167.87,182.278L1167.87,164.641L1173.45,166.214L1168.06,157.563L1112.06,139.707L1112.06,108.584L1118.72,108.584L1090.13,87.8313L1078.88,96.0063L1078.88,90.6347L1072.35,90.6347L1072.35,100.744L1061.55,108.584L1068.21,108.584L1068.21,171.838L1052.99,182.885L1052.99,59.2978L1047.88,59.2978L1047.88,43.8933L1042.63,43.8933L1042.63,32.7325L1031.84,32.7325L1029.93,1.34045L1029.72,1.34045L1027.81,32.7325L1017.02,32.7325L1017.02,43.8933L1011.77,43.8933L1011.77,59.2978L1006.66,59.2978L1006.66,145.116L999.401,145.116L999.401,135.949L987.969,135.949L987.969,141.578L975.308,141.578L975.308,145.116L968.05,145.116L968.05,66.488L972.298,66.488L972.298,55.9666L965.735,55.9666L965.735,52.0236L937.162,52.0236L937.162,55.9666L930.599,55.9666L930.599,66.488L934.846,66.488L934.846,89.8705L929.594,89.8705L929.594,79.5211L922.692,79.5211L922.692,89.8705L915.913,89.8705L897.083,75.4402L878.178,89.8705L871.439,89.8705L871.439,79.5211L864.538,79.5211L864.538,89.8705L857.146,89.8705L857.146,93.6468L851.602,93.6468L850.124,100.761L854.19,100.761L854.19,137.469L835.285,122.111L815.79,137.941L815.79,87.6777L819.999,87.6777L819.999,80.3116L805.079,80.3116L805.079,76.4053L776.767,76.4053L776.767,80.3116L770.264,80.3116L770.264,87.6777L774.472,87.6777L774.472,197.425L761.896,191.593L761.896,175.546L764.582,175.546L762.195,169.799L724.545,169.799L724.545,112.902L730.087,112.902L719.968,106.941L719.968,99.9126L715.212,99.9126L715.212,104.141L706.287,98.8831L682.487,112.902L688.03,112.902L688.03,153.295L665.859,153.295L665.859,126.033L671.403,126.033L647.601,112.013L623.802,126.033L629.343,126.033L629.343,207.847L616.993,207.847L616.993,194.861L621.3,194.861L616.602,187.323L603.051,187.323L579.011,169.868L579.011,132.875L585.667,132.875L574.87,125.035L574.87,114.926L568.342,114.926L568.342,120.297L557.085,112.122L528.502,132.875L535.158,132.875L535.158,155.593L523.156,155.593L519.005,152.58L519.005,141.114L511.513,141.114L511.513,147.141L498.781,137.897L465.97,161.717L473.611,161.717L473.611,183.05L451.199,183.05L451.199,162.077L456.346,162.077L452.949,156.625L447.851,156.625L447.851,153.476L438.397,153.476C437.891,150.542 435.351,148.304 432.271,148.304C429.192,148.304 426.652,150.542 426.147,153.476L416.694,153.476L416.694,156.625L411.595,156.625L408.197,162.077L413.344,162.077L413.344,174.472L399.473,174.472L399.473,187.323L388.038,187.323L388.038,181.474L382.056,181.474L382.056,172.266L388.712,172.266L360.129,151.513L350.339,158.621L350.339,154.317L343.814,154.317L343.814,163.358L331.547,172.266L338.202,172.266L338.202,181.854L313.07,181.854L308.92,178.842L308.92,167.375L301.428,167.375L301.428,173.402L288.695,164.158L255.885,187.978L263.526,187.978L263.526,209.311L248.993,209.311L248.993,161.952L257.588,161.952L220.684,135.16L208.045,144.335L208.045,138.778L199.619,138.778L199.619,150.453L183.78,161.952L192.372,161.952L192.372,172.283L187.343,172.283L187.343,181.474L169.255,181.474L169.255,186.749L154.339,186.749L150.18,183.729L150.18,172.283L142.7,172.283L142.7,178.299L129.99,169.071L110.489,183.229L78.6109,160.085L66.1055,169.165L66.1055,163.667L57.7691,163.667L57.7691,175.218L42.0967,186.595L50.5999,186.595L50.5999,199.573L23.3387,179.781L10.8334,188.86L10.8334,183.362L2.4956,183.362L2.4956,194.913L-13.1755,206.291L-4.67226,206.291L-4.67226,220.074L-9.23768,220.074L-9.23768,228.772L1926.17,228.772L1926.17,220.074L1920.46,220.074L1920.46,205.676Z" style="fill:rgb(1,70,95);fill-rule:nonzero;"/>
            </g>
        </g>
    </g>
</svg>
